
<svg xmlns="http://www.w3.org/2000/svg" enable-background="new 0 0 512 512" viewBox="0 0 512 512"><path fill="#87ddf5" d="M435.537,504.5H127.787c-37.034,0-67.057-30.022-67.057-67.057V74.5c0-37.003,29.997-67,67-67
							h300.278c12.852,0,23.27,10.418,23.27,23.27v343.713c0,12.852-10.418,23.27-23.27,23.27h-0.004l-23.25,37.632l23.25,37.632
							h7.532c8.694,0,15.742,7.048,15.742,15.742v0C451.278,497.452,444.231,504.5,435.537,504.5z"/><path fill="#64d5f5" d="M428.008,397.753c12.852,0,23.27-10.418,23.27-23.27V30.77c0-12.852-10.418-23.27-23.27-23.27
							h-40c12.852,0,23.27,10.418,23.27,23.27v343.713c0,12.852-10.418,23.27-23.27,23.27h-0.004v75.264h7.532
							c8.694,0,15.742,7.048,15.742,15.742v0c0,8.694-7.048,15.741-15.742,15.741h40c8.694,0,15.742-7.048,15.742-15.741v0
							c0-8.694-7.048-15.742-15.742-15.742h-7.532l-23.25-37.632l23.25-37.632H428.008z"/><path fill="#ffda45" d="M60.731,74.5v362.943c0,35.199,27.126,64.044,61.612,66.818V7.735
								C87.862,10.482,60.731,39.313,60.731,74.5z"/><path fill="#f0f5fa" d="M428.004,473.017H130.926c-21.116,0-38.234-16.848-38.234-37.632v0
							c0-20.784,17.118-37.632,38.234-37.632h297.078V473.017z"/><rect width="40" height="75.264" x="388.004" y="397.753" fill="#e4ecf2"/><path fill="#fff" d="M163.297,86.018L163.297,86.018c47.535,6.103,95.774-3.201,137.63-26.544l0.573-0.32
						l20.208,103.961c3.351,17.24-0.284,35.106-10.105,49.666l0,0c-22.274,33.023-67.101,41.736-100.124,19.462l-0.77-0.519
						c-14.679-9.901-24.782-25.269-28.052-42.671L163.297,86.018z"/><path fill="#f0f5fa" d="M321.708,163.115L301.5,59.154l-0.573,0.32c-11.631,6.487-23.756,11.885-36.221,16.175
							l17.002,87.466c3.351,17.24-0.283,35.106-10.105,49.666v0c-9.851,14.605-24.116,24.445-39.818,28.962
							c29.265,8.464,61.866-2.346,79.818-28.962v0C321.425,198.221,325.059,180.355,321.708,163.115z"/><path fill="#ffda45" d="M270.467,168.005L270.467,168.005c41.787,23.466,89.999,32.91,137.552,26.946l0.651-0.082
							L388.462,298.83c-3.351,17.24-13.414,32.443-27.974,42.264l0,0c-33.023,22.274-77.85,13.561-100.124-19.462l-0.519-0.77
							c-9.901-14.679-13.512-32.712-10.024-50.072L270.467,168.005z"/><path fill="#fac800" d="M408.018,194.951c-13.214,1.657-26.479,2.121-39.642,1.428L348.462,298.83
								c-3.351,17.24-13.414,32.443-27.974,42.264l0,0c-6.407,4.322-13.261,7.462-20.306,9.5c19.801,5.697,41.888,2.923,60.306-9.5
								l0,0c14.56-9.821,24.623-25.024,27.974-42.264l20.208-103.961L408.018,194.951z"/><path fill="#060606" d="M435.504,404.33c13.355-3.356,23.273-15.465,23.273-29.847V30.77
			c0-16.967-13.803-30.77-30.77-30.77H127.731c-40.526,0-74.5,34.064-74.5,74.5v35.649c0,9.697,15,9.697,15,0V74.5
			c0-27.265,19.936-52.151,46.59-58.073l0.01,376.72c-16.493,5.353-29.638,22.941-29.638,42.238
			c0,19.254,12.285,35.722,29.522,42.193c-0.132,5.838-0.16,11.933-0.076,17.941c-22.97-5.199-44.674-26.146-45.136-50.674
			c-0.741-35.929-1.272-294.67-1.272-294.67c0.031-9.579-14.289-10.783-15-0.054c-0.018,5.282,0.001,287.323,0.001,287.323
			c0,45.307,33.43,74.557,74.557,74.557h225.431c9.697,0,9.697-15,0-15H129.666c-0.096-5.492-0.101-11.094-0.01-16.515
			c0,0,204.025,0.037,305.88,0.031c10.309,0,10.782,16.483,0,16.483h-36.532c-9.697,0-9.697,15,0,15h36.532
			c12.815,0,23.241-10.426,23.241-23.242s-10.426-23.242-23.241-23.242h-0.032V404.33z M129.826,15h298.182
			c8.695,0,15.77,7.074,15.77,15.77v343.713c0,8.696-7.074,15.77-15.773,15.77H130.926c-0.37,0-0.735,0.019-1.102,0.028
			C129.515,265.7,129.515,139.541,129.826,15z M100.193,435.385c0-16.615,13.787-30.132,30.733-30.132h289.578v22.632H246.671
			c-4.143,0-7.5,3.358-7.5,7.5s3.357,7.5,7.5,7.5h173.833v22.632H130.926C113.98,465.517,100.193,452,100.193,435.385z"/><path fill="#060606" d="M175.287,190.438c3.615,19.241,14.997,36.555,31.229,47.504l0.771,0.519
			c11.662,7.867,24.883,12.427,38.683,13.414l-3.503,17.438c-8.366,41.651,21.611,82.201,62.497,90.148
			c40.63,7.897,82.835-17.906,90.86-59.201l20.208-103.96c1.167-6.001-4.293-8.718-8.947-8.792
			c-25.695,3.224-51.892,1.698-77.038-4.27c0.739-7.181,0.414-14.404-0.976-21.556l-20.208-103.96
			c-0.459-2.36-2.021-4.357-4.202-5.371c-2.18-1.013-4.715-0.919-6.814,0.252l-0.572,0.319
			c-40.164,22.401-87.403,31.513-133.021,25.655c-2.378-0.307-4.762,0.545-6.41,2.292c-1.646,1.745-2.359,4.173-1.916,6.532
			L175.287,190.438z M399.374,203.387l-18.274,94.012c-6.468,33.282-40.627,53.684-73.273,47.338
			c-32.893-6.394-57.405-38.857-50.652-72.47l18.663-92.911c13.599,6.847,27.869,12.312,42.527,16.356
			c0.543,0.259,1.121,0.464,1.736,0.589c0.294,0.06,0.588,0.096,0.88,0.121C346.464,203.138,373.074,205.556,399.374,203.387z
			 M296.072,70.535l18.274,94.011c0.945,4.858,1.265,9.757,0.976,14.642c-14.282-4.461-28.113-10.382-41.184-17.722
			c-4.515-2.536-10.093,0.42-11.025,5.063l-1.894,9.428c-15.538-0.219-30.419,7.381-39.288,20.529
			c-5.3,7.857,7.146,16.233,12.436,8.388c5.474-8.116,14.329-13.1,23.82-13.819l-9.232,45.96
			c-11.886-0.502-23.283-4.244-33.281-10.989l-0.77-0.519c-12.929-8.721-21.996-22.512-24.875-37.838l-17.501-93.137
			C214.9,98.033,258.09,89.647,296.072,70.535z"/><path fill="#060606" d="M258.917 138.886c16.367 11.041 38.825-3.846 35.061-23.207-1.854-9.518-16.574-6.656-14.725 2.863 1.915 9.842-13.309 12.8-15.224 2.959-1.85-9.519-16.574-6.657-14.725 2.862C250.464 130.33 253.877 135.487 258.917 138.886zM213.131 154.15c1.435 0 2.89-.137 4.35-.42 12.316-2.394 20.389-14.362 17.995-26.678-1.85-9.521-16.574-6.657-14.725 2.861.815 4.198-1.935 8.277-6.132 9.092-4.201.814-8.276-1.935-9.092-6.132-1.85-9.519-16.574-6.657-14.725 2.862C192.914 146.591 202.462 154.15 213.131 154.15zM339.566 297.189c-14.428 9.734-34.088 5.913-43.822-8.518-5.425-8.039-17.859.349-12.436 8.388 8.985 13.321 23.701 20.513 38.676 20.513 8.955 0 18.005-2.574 25.971-7.947C355.993 304.202 347.604 291.765 339.566 297.189zM289.159 242.242c1.915-9.844 17.136-6.879 15.225 2.96-1.799 9.256 12.847 12.522 14.725 2.861 2.394-12.316-5.679-24.284-17.994-26.678-12.076-2.347-24.326 5.892-26.68 17.995C272.585 248.899 287.309 251.762 289.159 242.242zM338.867 259.545c4.066.792 8.003-1.865 8.793-5.931 1.915-9.843 17.136-6.879 15.225 2.959-1.798 9.256 12.847 12.523 14.725 2.862 2.394-12.316-5.679-24.284-17.994-26.678-12.076-2.345-24.326 5.89-26.68 17.995C332.145 254.818 334.8 258.754 338.867 259.545zM206.578 285.643c4.143 0 7.5-3.358 7.5-7.5s-3.357-7.5-7.5-7.5h-7.222v-7.223c0-4.142-3.357-7.5-7.5-7.5s-7.5 3.358-7.5 7.5v7.223h-7.223c-4.143 0-7.5 3.358-7.5 7.5s3.357 7.5 7.5 7.5h7.223v7.222c0 4.142 3.357 7.5 7.5 7.5s7.5-3.358 7.5-7.5v-7.222H206.578zM340.691 87.5h7.223v7.222c0 4.142 3.357 7.5 7.5 7.5s7.5-3.358 7.5-7.5V87.5h7.223c4.143 0 7.5-3.358 7.5-7.5s-3.357-7.5-7.5-7.5h-7.223v-7.222c0-4.142-3.357-7.5-7.5-7.5s-7.5 3.358-7.5 7.5V72.5h-7.223c-4.143 0-7.5 3.358-7.5 7.5S336.548 87.5 340.691 87.5zM395.004 133.695c9.652 0 9.668-15 0-15C385.353 118.695 385.337 133.695 395.004 133.695zM355.414 144.368c-9.652 0-9.668 15 0 15C365.065 159.368 365.082 144.368 355.414 144.368zM213.281 319.5c-9.652 0-9.668 15 0 15C222.933 334.5 222.949 319.5 213.281 319.5z"/></svg>