<svg width="1902" height="512" viewBox="0 0 1902 512" fill="none" xmlns="http://www.w3.org/2000/svg">
<g clip-path="url(#clip0_1_16)">
<path d="M435.537 504.5H127.787C90.753 504.5 60.73 474.478 60.73 437.443V74.5C60.73 37.497 90.727 7.5 127.73 7.5H428.008C440.86 7.5 451.278 17.918 451.278 30.77V374.483C451.278 387.335 440.86 397.753 428.008 397.753H428.004L404.754 435.385L428.004 473.017H435.536C444.23 473.017 451.278 480.065 451.278 488.759C451.278 497.452 444.231 504.5 435.537 504.5Z" fill="#87DDF5"/>
<path d="M428.008 397.753C440.86 397.753 451.278 387.335 451.278 374.483V30.77C451.278 17.918 440.86 7.5 428.008 7.5H388.008C400.86 7.5 411.278 17.918 411.278 30.77V374.483C411.278 387.335 400.86 397.753 388.008 397.753H388.004V473.017H395.536C404.23 473.017 411.278 480.065 411.278 488.759C411.278 497.453 404.23 504.5 395.536 504.5H435.536C444.23 504.5 451.278 497.452 451.278 488.759C451.278 480.065 444.23 473.017 435.536 473.017H428.004L404.754 435.385L428.004 397.753H428.008Z" fill="#64D5F5"/>
<path d="M60.731 74.5V437.443C60.731 472.642 87.857 501.487 122.343 504.261V7.735C87.862 10.482 60.731 39.313 60.731 74.5Z" fill="#FFDA45"/>
<path d="M428.004 473.017H130.926C109.81 473.017 92.692 456.169 92.692 435.385C92.692 414.601 109.81 397.753 130.926 397.753H428.004V473.017V473.017Z" fill="#F0F5FA"/>
<path d="M428.004 397.753H388.004V473.017H428.004V397.753Z" fill="#E4ECF2"/>
<path d="M163.297 86.018C210.832 92.121 259.071 82.817 300.927 59.474L301.5 59.154L321.708 163.115C325.059 180.355 321.424 198.221 311.603 212.781C289.329 245.804 244.502 254.517 211.479 232.243L210.709 231.724C196.03 221.823 185.927 206.455 182.657 189.053L163.297 86.018Z" fill="white"/>
<path d="M321.708 163.115L301.5 59.154L300.927 59.474C289.296 65.961 277.171 71.359 264.706 75.649L281.708 163.115C285.059 180.355 281.425 198.221 271.603 212.781C261.752 227.386 247.487 237.226 231.785 241.743C261.05 250.207 293.651 239.397 311.603 212.781C321.425 198.221 325.059 180.355 321.708 163.115Z" fill="#F0F5FA"/>
<path d="M270.467 168.005C312.254 191.471 360.466 200.915 408.019 194.951L408.67 194.869L388.462 298.83C385.111 316.07 375.048 331.273 360.488 341.094C327.465 363.368 282.638 354.655 260.364 321.632L259.845 320.862C249.944 306.183 246.333 288.15 249.821 270.79L270.467 168.005Z" fill="#FFDA45"/>
<path d="M408.018 194.951C394.804 196.608 381.539 197.072 368.376 196.379L348.462 298.83C345.111 316.07 335.048 331.273 320.488 341.094C314.081 345.416 307.227 348.556 300.182 350.594C319.983 356.291 342.07 353.517 360.488 341.094C375.048 331.273 385.111 316.07 388.462 298.83L408.67 194.869L408.018 194.951Z" fill="#FAC800"/>
<path d="M435.504 404.33C448.859 400.974 458.777 388.865 458.777 374.483V30.77C458.777 13.803 444.974 0 428.007 0H127.731C87.205 0 53.231 34.064 53.231 74.5V110.149C53.231 119.846 68.231 119.846 68.231 110.149V74.5C68.231 47.235 88.167 22.349 114.821 16.427L114.831 393.147C98.338 398.5 85.193 416.088 85.193 435.385C85.193 454.639 97.478 471.107 114.715 477.578C114.583 483.416 114.555 489.511 114.639 495.519C91.669 490.32 69.965 469.373 69.503 444.845C68.762 408.916 68.231 150.175 68.231 150.175C68.262 140.596 53.942 139.392 53.231 150.121C53.213 155.403 53.232 437.444 53.232 437.444C53.232 482.751 86.662 512.001 127.789 512.001H353.22C362.917 512.001 362.917 497.001 353.22 497.001H129.666C129.57 491.509 129.565 485.907 129.656 480.486C129.656 480.486 333.681 480.523 435.536 480.517C445.845 480.517 446.318 497 435.536 497H399.004C389.307 497 389.307 512 399.004 512H435.536C448.351 512 458.777 501.574 458.777 488.758C458.777 475.942 448.351 465.516 435.536 465.516H435.504V404.33ZM129.826 15H428.008C436.703 15 443.778 22.074 443.778 30.77V374.483C443.778 383.179 436.704 390.253 428.005 390.253H130.926C130.556 390.253 130.191 390.272 129.824 390.281C129.515 265.7 129.515 139.541 129.826 15ZM100.193 435.385C100.193 418.77 113.98 405.253 130.926 405.253H420.504V427.885H246.671C242.528 427.885 239.171 431.243 239.171 435.385C239.171 439.527 242.528 442.885 246.671 442.885H420.504V465.517H130.926C113.98 465.517 100.193 452 100.193 435.385Z" fill="#060606"/>
<path d="M175.287 190.438C178.902 209.679 190.284 226.993 206.516 237.942L207.287 238.461C218.949 246.328 232.17 250.888 245.97 251.875L242.467 269.313C234.101 310.964 264.078 351.514 304.964 359.461C345.594 367.358 387.799 341.555 395.824 300.26L416.032 196.3C417.199 190.299 411.739 187.582 407.085 187.508C381.39 190.732 355.193 189.206 330.047 183.238C330.786 176.057 330.461 168.834 329.071 161.682L308.863 57.722C308.404 55.362 306.842 53.365 304.661 52.351C302.481 51.338 299.946 51.432 297.847 52.603L297.275 52.922C257.111 75.323 209.872 84.435 164.254 78.577C161.876 78.27 159.492 79.122 157.844 80.869C156.198 82.614 155.485 85.042 155.928 87.401L175.287 190.438ZM399.374 203.387L381.1 297.399C374.632 330.681 340.473 351.083 307.827 344.737C274.934 338.343 250.422 305.88 257.175 272.267L275.838 179.356C289.437 186.203 303.707 191.668 318.365 195.712C318.908 195.971 319.486 196.176 320.101 196.301C320.395 196.361 320.689 196.397 320.981 196.422C346.464 203.138 373.074 205.556 399.374 203.387ZM296.072 70.535L314.346 164.546C315.291 169.404 315.611 174.303 315.322 179.188C301.04 174.727 287.209 168.806 274.138 161.466C269.623 158.93 264.045 161.886 263.113 166.529L261.219 175.957C245.681 175.738 230.8 183.338 221.931 196.486C216.631 204.343 229.077 212.719 234.367 204.874C239.841 196.758 248.696 191.774 258.187 191.055L248.955 237.015C237.069 236.513 225.672 232.771 215.674 226.026L214.904 225.507C201.975 216.786 192.908 202.995 190.029 187.669L172.528 94.532C214.9 98.033 258.09 89.647 296.072 70.535Z" fill="#060606"/>
<path d="M258.917 138.886C275.284 149.927 297.742 135.04 293.978 115.679C292.124 106.161 277.404 109.023 279.253 118.542C281.168 128.384 265.944 131.342 264.029 121.501C262.179 111.982 247.455 114.844 249.304 124.363C250.464 130.33 253.877 135.487 258.917 138.886ZM213.131 154.15C214.566 154.15 216.021 154.013 217.481 153.73C229.797 151.336 237.87 139.368 235.476 127.052C233.626 117.531 218.902 120.395 220.751 129.913C221.566 134.111 218.816 138.19 214.619 139.005C210.418 139.819 206.343 137.07 205.527 132.873C203.677 123.354 188.953 126.216 190.802 135.735C192.914 146.591 202.462 154.15 213.131 154.15ZM339.566 297.189C325.138 306.923 305.478 303.102 295.744 288.671C290.319 280.632 277.885 289.02 283.308 297.059C292.293 310.38 307.009 317.572 321.984 317.572C330.939 317.572 339.989 314.998 347.955 309.625C355.993 304.202 347.604 291.765 339.566 297.189ZM289.159 242.242C291.074 232.398 306.295 235.363 304.384 245.202C302.585 254.458 317.231 257.724 319.109 248.063C321.503 235.747 313.43 223.779 301.115 221.385C289.039 219.038 276.789 227.277 274.435 239.38C272.585 248.899 287.309 251.762 289.159 242.242ZM338.867 259.545C342.933 260.337 346.87 257.68 347.66 253.614C349.575 243.771 364.796 246.735 362.885 256.573C361.087 265.829 375.732 269.096 377.61 259.435C380.004 247.119 371.931 235.151 359.616 232.757C347.54 230.412 335.29 238.647 332.936 250.752C332.145 254.818 334.8 258.754 338.867 259.545ZM206.578 285.643C210.721 285.643 214.078 282.285 214.078 278.143C214.078 274.001 210.721 270.643 206.578 270.643H199.356V263.42C199.356 259.278 195.999 255.92 191.856 255.92C187.713 255.92 184.356 259.278 184.356 263.42V270.643H177.133C172.99 270.643 169.633 274.001 169.633 278.143C169.633 282.285 172.99 285.643 177.133 285.643H184.356V292.865C184.356 297.007 187.713 300.365 191.856 300.365C195.999 300.365 199.356 297.007 199.356 292.865V285.643H206.578ZM340.691 87.5H347.914V94.722C347.914 98.864 351.271 102.222 355.414 102.222C359.557 102.222 362.914 98.864 362.914 94.722V87.5H370.137C374.28 87.5 377.637 84.142 377.637 80C377.637 75.858 374.28 72.5 370.137 72.5H362.914V65.278C362.914 61.136 359.557 57.778 355.414 57.778C351.271 57.778 347.914 61.136 347.914 65.278V72.5H340.691C336.548 72.5 333.191 75.858 333.191 80C333.191 84.142 336.548 87.5 340.691 87.5ZM395.004 133.695C404.656 133.695 404.672 118.695 395.004 118.695C385.353 118.695 385.337 133.695 395.004 133.695ZM355.414 144.368C345.762 144.368 345.746 159.368 355.414 159.368C365.065 159.368 365.082 144.368 355.414 144.368ZM213.281 319.5C203.629 319.5 203.613 334.5 213.281 334.5C222.933 334.5 222.949 319.5 213.281 319.5Z" fill="#060606"/>
</g>
<path d="M641.828 265.562H556.047L536.781 319H508.938L587.125 114.25H610.75L689.078 319H661.375L641.828 265.562ZM564.203 243.344H633.812L598.938 147.578L564.203 243.344ZM737.172 166.844L738.016 185.969C749.641 171.344 764.828 164.031 783.578 164.031C815.734 164.031 831.953 182.172 832.234 218.453V319H806.219V218.312C806.125 207.344 803.594 199.234 798.625 193.984C793.75 188.734 786.109 186.109 775.703 186.109C767.266 186.109 759.859 188.359 753.484 192.859C747.109 197.359 742.141 203.266 738.578 210.578V319H712.562V166.844H737.172ZM899.734 319H873.719V166.844H899.734V319ZM871.609 126.484C871.609 122.266 872.875 118.703 875.406 115.797C878.031 112.891 881.875 111.438 886.938 111.438C892 111.438 895.844 112.891 898.469 115.797C901.094 118.703 902.406 122.266 902.406 126.484C902.406 130.703 901.094 134.219 898.469 137.031C895.844 139.844 892 141.25 886.938 141.25C881.875 141.25 878.031 139.844 875.406 137.031C872.875 134.219 871.609 130.703 871.609 126.484ZM1077.34 227.734C1054.19 221.078 1037.31 212.922 1026.72 203.266C1016.22 193.516 1010.97 181.516 1010.97 167.266C1010.97 151.141 1017.39 137.828 1030.23 127.328C1043.17 116.734 1059.95 111.438 1080.58 111.438C1094.64 111.438 1107.16 114.156 1118.12 119.594C1129.19 125.031 1137.72 132.531 1143.72 142.094C1149.81 151.656 1152.86 162.109 1152.86 173.453H1125.72C1125.72 161.078 1121.78 151.375 1113.91 144.344C1106.03 137.219 1094.92 133.656 1080.58 133.656C1067.27 133.656 1056.86 136.609 1049.36 142.516C1041.95 148.328 1038.25 156.438 1038.25 166.844C1038.25 175.188 1041.77 182.266 1048.8 188.078C1055.92 193.797 1067.97 199.047 1084.94 203.828C1102 208.609 1115.31 213.906 1124.88 219.719C1134.53 225.438 1141.66 232.141 1146.25 239.828C1150.94 247.516 1153.28 256.562 1153.28 266.969C1153.28 283.562 1146.81 296.875 1133.88 306.906C1120.94 316.844 1103.64 321.812 1081.98 321.812C1067.92 321.812 1054.8 319.141 1042.61 313.797C1030.42 308.359 1021 300.953 1014.34 291.578C1007.78 282.203 1004.5 271.562 1004.5 259.656H1031.64C1031.64 272.031 1036.19 281.828 1045.28 289.047C1054.47 296.172 1066.7 299.734 1081.98 299.734C1096.23 299.734 1107.16 296.828 1114.75 291.016C1122.34 285.203 1126.14 277.281 1126.14 267.25C1126.14 257.219 1122.62 249.484 1115.59 244.047C1108.56 238.516 1095.81 233.078 1077.34 227.734ZM1219.23 130V166.844H1247.64V186.953H1219.23V281.312C1219.23 287.406 1220.5 292 1223.03 295.094C1225.56 298.094 1229.88 299.594 1235.97 299.594C1238.97 299.594 1243.09 299.031 1248.34 297.906V319C1241.5 320.875 1234.84 321.812 1228.38 321.812C1216.75 321.812 1207.98 318.297 1202.08 311.266C1196.17 304.234 1193.22 294.25 1193.22 281.312V186.953H1165.52V166.844H1193.22V130H1219.23ZM1268.45 241.516C1268.45 226.609 1271.36 213.203 1277.17 201.297C1283.08 189.391 1291.23 180.203 1301.64 173.734C1312.14 167.266 1324.09 164.031 1337.5 164.031C1358.22 164.031 1374.95 171.203 1387.7 185.547C1400.55 199.891 1406.97 218.969 1406.97 242.781V244.609C1406.97 259.422 1404.11 272.734 1398.39 284.547C1392.77 296.266 1384.66 305.406 1374.06 311.969C1363.56 318.531 1351.47 321.812 1337.78 321.812C1317.16 321.812 1300.42 314.641 1287.58 300.297C1274.83 285.953 1268.45 266.969 1268.45 243.344V241.516ZM1294.61 244.609C1294.61 261.484 1298.5 275.031 1306.28 285.25C1314.16 295.469 1324.66 300.578 1337.78 300.578C1351 300.578 1361.5 295.422 1369.28 285.109C1377.06 274.703 1380.95 260.172 1380.95 241.516C1380.95 224.828 1376.97 211.328 1369 201.016C1361.12 190.609 1350.62 185.406 1337.5 185.406C1324.66 185.406 1314.3 190.516 1306.42 200.734C1298.55 210.953 1294.61 225.578 1294.61 244.609ZM1513.14 190.188C1509.2 189.531 1504.94 189.203 1500.34 189.203C1483.28 189.203 1471.7 196.469 1465.61 211V319H1439.59V166.844H1464.91L1465.33 184.422C1473.86 170.828 1485.95 164.031 1501.61 164.031C1506.67 164.031 1510.52 164.688 1513.14 166V190.188ZM1565.45 319H1539.44V166.844H1565.45V319ZM1537.33 126.484C1537.33 122.266 1538.59 118.703 1541.12 115.797C1543.75 112.891 1547.59 111.438 1552.66 111.438C1557.72 111.438 1561.56 112.891 1564.19 115.797C1566.81 118.703 1568.12 122.266 1568.12 126.484C1568.12 130.703 1566.81 134.219 1564.19 137.031C1561.56 139.844 1557.72 141.25 1552.66 141.25C1547.59 141.25 1543.75 139.844 1541.12 137.031C1538.59 134.219 1537.33 130.703 1537.33 126.484ZM1670.36 321.812C1649.73 321.812 1632.95 315.062 1620.02 301.562C1607.08 287.969 1600.61 269.828 1600.61 247.141V242.359C1600.61 227.266 1603.47 213.812 1609.19 202C1615 190.094 1623.06 180.812 1633.38 174.156C1643.78 167.406 1655.03 164.031 1667.12 164.031C1686.91 164.031 1702.28 170.547 1713.25 183.578C1724.22 196.609 1729.7 215.266 1729.7 239.547V250.375H1626.62C1627 265.375 1631.36 277.516 1639.7 286.797C1648.14 295.984 1658.83 300.578 1671.77 300.578C1680.95 300.578 1688.73 298.703 1695.11 294.953C1701.48 291.203 1707.06 286.234 1711.84 280.047L1727.73 292.422C1714.98 312.016 1695.86 321.812 1670.36 321.812ZM1667.12 185.406C1656.62 185.406 1647.81 189.25 1640.69 196.938C1633.56 204.531 1629.16 215.219 1627.47 229H1703.69V227.031C1702.94 213.812 1699.38 203.594 1693 196.375C1686.62 189.062 1678 185.406 1667.12 185.406ZM1848.53 278.641C1848.53 271.609 1845.86 266.172 1840.52 262.328C1835.27 258.391 1826.03 255.016 1812.81 252.203C1799.69 249.391 1789.23 246.016 1781.45 242.078C1773.77 238.141 1768.05 233.453 1764.3 228.016C1760.64 222.578 1758.81 216.109 1758.81 208.609C1758.81 196.141 1764.06 185.594 1774.56 176.969C1785.16 168.344 1798.66 164.031 1815.06 164.031C1832.31 164.031 1846.28 168.484 1856.97 177.391C1867.75 186.297 1873.14 197.688 1873.14 211.562H1846.98C1846.98 204.438 1843.94 198.297 1837.84 193.141C1831.84 187.984 1824.25 185.406 1815.06 185.406C1805.59 185.406 1798.19 187.469 1792.84 191.594C1787.5 195.719 1784.83 201.109 1784.83 207.766C1784.83 214.047 1787.31 218.781 1792.28 221.969C1797.25 225.156 1806.2 228.203 1819.14 231.109C1832.17 234.016 1842.72 237.484 1850.78 241.516C1858.84 245.547 1864.8 250.422 1868.64 256.141C1872.58 261.766 1874.55 268.656 1874.55 276.812C1874.55 290.406 1869.11 301.328 1858.23 309.578C1847.36 317.734 1833.25 321.812 1815.91 321.812C1803.72 321.812 1792.94 319.656 1783.56 315.344C1774.19 311.031 1766.83 305.031 1761.48 297.344C1756.23 289.562 1753.61 281.172 1753.61 272.172H1779.62C1780.09 280.891 1783.56 287.828 1790.03 292.984C1796.59 298.047 1805.22 300.578 1815.91 300.578C1825.75 300.578 1833.62 298.609 1839.53 294.672C1845.53 290.641 1848.53 285.297 1848.53 278.641Z" fill="white"/>
<defs>
<clipPath id="clip0_1_16">
<rect width="512" height="512" fill="white"/>
</clipPath>
</defs>
</svg>
