<svg width="362" height="120" viewBox="0 0 362 120" fill="none" xmlns="http://www.w3.org/2000/svg">
<path d="M39.9082 62.4141H14.8887L9.26953 78H1.14844L23.9531 18.2812H30.8438L53.6895 78H45.6094L39.9082 62.4141ZM17.2676 55.9336H37.5703L27.3984 28.002L17.2676 55.9336ZM107.625 78H99.709L69.6445 31.9805V78H61.7285V18.2812H69.6445L99.791 64.5059V18.2812H107.625V78ZM130.061 78H122.186V18.2812H130.061V78ZM159.674 50.2324L152.373 57.8203V78H144.498V18.2812H152.373V47.8125L178.91 18.2812H188.426L164.924 44.6543L190.271 78H180.838L159.674 50.2324ZM241.787 50.0684C241.787 55.9199 240.803 61.0332 238.834 65.4082C236.865 69.7559 234.076 73.0781 230.467 75.375C226.857 77.6719 222.646 78.8203 217.834 78.8203C213.131 78.8203 208.961 77.6719 205.324 75.375C201.688 73.0508 198.857 69.7559 196.834 65.4902C194.838 61.1973 193.812 56.2344 193.758 50.6016V46.2949C193.758 40.5527 194.756 35.4805 196.752 31.0781C198.748 26.6758 201.564 23.3125 205.201 20.9883C208.865 18.6367 213.049 17.4609 217.752 17.4609C222.537 17.4609 226.748 18.623 230.385 20.9473C234.049 23.2441 236.865 26.5938 238.834 30.9961C240.803 35.3711 241.787 40.4707 241.787 46.2949V50.0684ZM233.953 46.2129C233.953 39.1309 232.531 33.7031 229.688 29.9297C226.844 26.1289 222.865 24.2285 217.752 24.2285C212.775 24.2285 208.852 26.1289 205.98 29.9297C203.137 33.7031 201.674 38.9531 201.592 45.6797V50.0684C201.592 56.9316 203.027 62.332 205.898 66.2695C208.797 70.1797 212.775 72.1348 217.834 72.1348C222.92 72.1348 226.857 70.2891 229.646 66.5977C232.436 62.8789 233.871 57.5605 233.953 50.6426V46.2129ZM253.6 78V18.2812H270.457C275.652 18.2812 280.246 19.4297 284.238 21.7266C288.23 24.0234 291.307 27.291 293.467 31.5293C295.654 35.7676 296.762 40.6348 296.789 46.1309V49.9453C296.789 55.5781 295.695 60.5137 293.508 64.752C291.348 68.9902 288.244 72.2441 284.197 74.5137C280.178 76.7832 275.488 77.9453 270.129 78H253.6ZM261.475 24.7617V71.5605H269.76C275.83 71.5605 280.547 69.6738 283.91 65.9004C287.301 62.127 288.996 56.7539 288.996 49.7812V46.2949C288.996 39.5137 287.396 34.25 284.197 30.5039C281.025 26.7305 276.514 24.8164 270.662 24.7617H261.475ZM342.48 50.3965H316.6V71.5605H346.664V78H308.725V18.2812H346.254V24.7617H316.6V43.957H342.48V50.3965Z" fill="#0C0C0C"/>
<rect y="89" width="129" height="29" fill="#3459EF"/>
<path d="M150.828 108.99H142.786L140.979 114H138.369L145.699 94.8047H147.914L155.257 114H152.66L150.828 108.99ZM143.55 106.907H150.076L146.807 97.9292L143.55 106.907ZM159.766 99.7354L159.845 101.528C160.935 100.157 162.359 99.4717 164.117 99.4717C167.131 99.4717 168.652 101.172 168.678 104.574V114H166.239V104.561C166.23 103.532 165.993 102.772 165.527 102.28C165.07 101.788 164.354 101.542 163.378 101.542C162.587 101.542 161.893 101.752 161.295 102.174C160.698 102.596 160.232 103.15 159.898 103.835V114H157.459V99.7354H159.766ZM177.023 110.427L180.346 99.7354H182.956L177.221 116.202C176.333 118.575 174.923 119.761 172.989 119.761L172.528 119.722L171.618 119.55V117.573L172.277 117.625C173.104 117.625 173.745 117.458 174.202 117.125C174.668 116.791 175.05 116.18 175.349 115.292L175.89 113.842L170.801 99.7354H173.464L177.023 110.427ZM184.288 106.736C184.288 105.338 184.56 104.082 185.105 102.965C185.659 101.849 186.423 100.988 187.399 100.381C188.383 99.7749 189.504 99.4717 190.761 99.4717C192.703 99.4717 194.272 100.144 195.467 101.489C196.671 102.833 197.273 104.622 197.273 106.854V107.026C197.273 108.415 197.005 109.663 196.469 110.77C195.942 111.869 195.182 112.726 194.188 113.341C193.204 113.956 192.07 114.264 190.787 114.264C188.854 114.264 187.285 113.591 186.081 112.247C184.885 110.902 184.288 109.122 184.288 106.907V106.736ZM186.74 107.026C186.74 108.608 187.104 109.878 187.834 110.836C188.572 111.794 189.557 112.273 190.787 112.273C192.026 112.273 193.011 111.79 193.74 110.823C194.47 109.847 194.834 108.485 194.834 106.736C194.834 105.171 194.461 103.906 193.714 102.939C192.976 101.963 191.991 101.476 190.761 101.476C189.557 101.476 188.585 101.955 187.847 102.913C187.109 103.871 186.74 105.242 186.74 107.026ZM202.639 99.7354L202.718 101.528C203.808 100.157 205.232 99.4717 206.99 99.4717C210.004 99.4717 211.525 101.172 211.551 104.574V114H209.112V104.561C209.104 103.532 208.866 102.772 208.4 102.28C207.943 101.788 207.227 101.542 206.251 101.542C205.46 101.542 204.766 101.752 204.168 102.174C203.571 102.596 203.105 103.15 202.771 103.835V114H200.332V99.7354H202.639ZM221.149 114.264C219.215 114.264 217.642 113.631 216.429 112.365C215.216 111.091 214.61 109.39 214.61 107.263V106.815C214.61 105.4 214.878 104.139 215.414 103.031C215.959 101.915 216.715 101.045 217.682 100.421C218.657 99.7881 219.712 99.4717 220.846 99.4717C222.7 99.4717 224.142 100.083 225.17 101.304C226.198 102.526 226.712 104.275 226.712 106.551V107.566H217.049C217.084 108.973 217.493 110.111 218.275 110.981C219.066 111.842 220.068 112.273 221.281 112.273C222.142 112.273 222.872 112.097 223.469 111.746C224.067 111.394 224.59 110.928 225.038 110.348L226.528 111.508C225.333 113.345 223.54 114.264 221.149 114.264ZM220.846 101.476C219.861 101.476 219.035 101.836 218.367 102.557C217.699 103.269 217.286 104.271 217.128 105.562H224.273V105.378C224.203 104.139 223.869 103.181 223.271 102.504C222.674 101.818 221.865 101.476 220.846 101.476ZM250.746 107.909C250.509 109.939 249.757 111.508 248.492 112.616C247.235 113.714 245.561 114.264 243.469 114.264C241.201 114.264 239.382 113.451 238.011 111.825C236.648 110.199 235.967 108.023 235.967 105.299V103.453C235.967 101.669 236.284 100.1 236.917 98.7466C237.558 97.3931 238.463 96.356 239.632 95.6353C240.801 94.9058 242.155 94.541 243.693 94.541C245.732 94.541 247.367 95.1123 248.597 96.2549C249.828 97.3887 250.544 98.9619 250.746 100.975H248.202C247.982 99.4453 247.503 98.3379 246.765 97.6523C246.035 96.9668 245.011 96.624 243.693 96.624C242.076 96.624 240.806 97.2217 239.883 98.417C238.969 99.6123 238.512 101.313 238.512 103.519V105.378C238.512 107.461 238.947 109.118 239.817 110.348C240.687 111.579 241.904 112.194 243.469 112.194C244.875 112.194 245.952 111.877 246.699 111.245C247.455 110.603 247.956 109.491 248.202 107.909H250.746ZM262.638 114C262.497 113.719 262.383 113.218 262.295 112.497C261.161 113.675 259.808 114.264 258.234 114.264C256.828 114.264 255.672 113.868 254.767 113.077C253.871 112.277 253.422 111.267 253.422 110.045C253.422 108.56 253.985 107.408 255.11 106.591C256.244 105.765 257.834 105.352 259.882 105.352H262.255V104.231C262.255 103.378 262 102.702 261.491 102.201C260.981 101.691 260.229 101.436 259.236 101.436C258.366 101.436 257.637 101.656 257.048 102.095C256.459 102.535 256.165 103.066 256.165 103.69H253.712C253.712 102.979 253.963 102.293 254.464 101.634C254.974 100.966 255.659 100.438 256.521 100.052C257.391 99.665 258.344 99.4717 259.381 99.4717C261.025 99.4717 262.312 99.8848 263.244 100.711C264.176 101.528 264.659 102.658 264.694 104.099V110.665C264.694 111.974 264.861 113.016 265.195 113.789V114H262.638ZM258.59 112.141C259.355 112.141 260.08 111.943 260.766 111.548C261.451 111.152 261.948 110.638 262.255 110.005V107.079H260.344C257.355 107.079 255.861 107.953 255.861 109.702C255.861 110.467 256.116 111.064 256.626 111.495C257.136 111.926 257.791 112.141 258.59 112.141ZM270.825 99.7354L270.904 101.528C271.994 100.157 273.417 99.4717 275.175 99.4717C278.19 99.4717 279.71 101.172 279.737 104.574V114H277.298V104.561C277.289 103.532 277.052 102.772 276.586 102.28C276.129 101.788 275.413 101.542 274.437 101.542C273.646 101.542 272.952 101.752 272.354 102.174C271.756 102.596 271.291 103.15 270.957 103.835V114H268.518V99.7354H270.825ZM304.614 107.909C304.377 109.939 303.625 111.508 302.36 112.616C301.103 113.714 299.429 114.264 297.337 114.264C295.069 114.264 293.25 113.451 291.879 111.825C290.517 110.199 289.835 108.023 289.835 105.299V103.453C289.835 101.669 290.152 100.1 290.785 98.7466C291.426 97.3931 292.332 96.356 293.5 95.6353C294.669 94.9058 296.023 94.541 297.561 94.541C299.6 94.541 301.235 95.1123 302.465 96.2549C303.696 97.3887 304.412 98.9619 304.614 100.975H302.07C301.85 99.4453 301.371 98.3379 300.633 97.6523C299.903 96.9668 298.879 96.624 297.561 96.624C295.944 96.624 294.674 97.2217 293.751 98.417C292.837 99.6123 292.38 101.313 292.38 103.519V105.378C292.38 107.461 292.815 109.118 293.685 110.348C294.555 111.579 295.772 112.194 297.337 112.194C298.743 112.194 299.82 111.877 300.567 111.245C301.323 110.603 301.824 109.491 302.07 107.909H304.614ZM307.053 106.736C307.053 105.338 307.326 104.082 307.871 102.965C308.424 101.849 309.189 100.988 310.165 100.381C311.149 99.7749 312.27 99.4717 313.526 99.4717C315.469 99.4717 317.038 100.144 318.233 101.489C319.437 102.833 320.039 104.622 320.039 106.854V107.026C320.039 108.415 319.771 109.663 319.235 110.77C318.708 111.869 317.947 112.726 316.954 113.341C315.97 113.956 314.836 114.264 313.553 114.264C311.619 114.264 310.05 113.591 308.846 112.247C307.651 110.902 307.053 109.122 307.053 106.907V106.736ZM309.505 107.026C309.505 108.608 309.87 109.878 310.6 110.836C311.338 111.794 312.322 112.273 313.553 112.273C314.792 112.273 315.776 111.79 316.506 110.823C317.235 109.847 317.6 108.485 317.6 106.736C317.6 105.171 317.227 103.906 316.479 102.939C315.741 101.963 314.757 101.476 313.526 101.476C312.322 101.476 311.351 101.955 310.613 102.913C309.875 103.871 309.505 105.242 309.505 107.026ZM322.504 106.749C322.504 104.561 323.023 102.803 324.06 101.476C325.097 100.14 326.455 99.4717 328.134 99.4717C329.804 99.4717 331.126 100.043 332.102 101.186V93.75H334.541V114H332.3L332.181 112.471C331.206 113.666 329.848 114.264 328.107 114.264C326.455 114.264 325.106 113.587 324.06 112.233C323.023 110.88 322.504 109.113 322.504 106.934V106.749ZM324.943 107.026C324.943 108.643 325.277 109.909 325.945 110.823C326.613 111.737 327.536 112.194 328.714 112.194C330.261 112.194 331.39 111.5 332.102 110.111V103.559C331.373 102.214 330.252 101.542 328.74 101.542C327.545 101.542 326.613 102.003 325.945 102.926C325.277 103.849 324.943 105.215 324.943 107.026ZM344.257 114.264C342.324 114.264 340.75 113.631 339.538 112.365C338.325 111.091 337.718 109.39 337.718 107.263V106.815C337.718 105.4 337.986 104.139 338.522 103.031C339.067 101.915 339.823 101.045 340.79 100.421C341.766 99.7881 342.82 99.4717 343.954 99.4717C345.809 99.4717 347.25 100.083 348.278 101.304C349.307 102.526 349.821 104.275 349.821 106.551V107.566H340.157C340.192 108.973 340.601 110.111 341.383 110.981C342.174 111.842 343.176 112.273 344.389 112.273C345.25 112.273 345.98 112.097 346.578 111.746C347.175 111.394 347.698 110.928 348.146 110.348L349.636 111.508C348.441 113.345 346.648 114.264 344.257 114.264ZM343.954 101.476C342.97 101.476 342.144 101.836 341.476 102.557C340.808 103.269 340.395 104.271 340.236 105.562H347.382V105.378C347.312 104.139 346.978 103.181 346.38 102.504C345.782 101.818 344.974 101.476 343.954 101.476Z" fill="#0C0C0C"/>
</svg>
